<svg width="426" height="115" viewBox="0 0 426 115" fill="none" xmlns="http://www.w3.org/2000/svg">
<mask id="path-1-outside-1_50_1948" maskUnits="userSpaceOnUse" x="8" y="18" width="410" height="77" fill="black">
<rect fill="white" x="8" y="18" width="410" height="77"/>
<path d="M45.252 23.6H48.552C53.952 23.6 59.8853 25.6667 66.352 29.8C70.552 32.7333 72.652 35.6 72.652 38.4V39.8C72.652 41.0667 71.852 42.7 70.252 44.7C68.252 46.1 66.452 46.8 64.852 46.8C62.5186 46.8 59.952 45.4333 57.152 42.7C54.0853 40.5 50.9186 39.4 47.652 39.4H46.052C39.452 39.4 34.3186 43 30.652 50.2C29.852 52.3333 29.452 54.2667 29.452 56V57.6C29.452 64.2 33.0186 69.3333 40.152 73C42.352 73.8 44.3186 74.2 46.052 74.2H47.652C50.9186 74.2 53.952 73.1667 56.752 71.1V67H44.252C41.3853 67 39.1186 64.9 37.452 60.7V58.2C37.452 56.1333 38.752 54.1667 41.352 52.3C42.4853 51.5 44.5186 51.1 47.452 51.1H62.652C67.9186 51.1 71.1853 53 72.452 56.8L72.652 58.2V75.7C72.652 79.3 68.2186 83.3 59.352 87.7C54.8186 89.2333 51.2186 90 48.552 90H45.252C36.652 90 28.652 86.0333 21.252 78.1C16.1853 71.4333 13.652 64.8667 13.652 58.4V55.2C13.652 46.6 17.6186 38.6 25.552 31.2C32.2186 26.1333 38.7853 23.6 45.252 23.6ZM104.504 43.1H106.904C113.838 43.1 120.004 46.6333 125.404 53.7C127.938 57.9 129.204 61.8 129.204 65.4V83.2C129.204 86.1333 127.104 88.4 122.904 90H120.404C119.271 90 117.704 89.3 115.704 87.9C112.704 89.3 109.704 90 106.704 90H104.504C97.571 90 91.4043 86.5 86.0043 79.5C83.5376 75.3 82.3043 71.3667 82.3043 67.7V65.4C82.3043 58.4 85.8043 52.2 92.8043 46.8C97.0043 44.3333 100.904 43.1 104.504 43.1ZM98.1043 67.5C98.1043 70.3667 100.138 72.6 104.204 74.2H106.704C109.571 74.2 111.771 72.1667 113.304 68.1V65.6C113.304 62.6667 111.304 60.4333 107.304 58.9H104.704C101.838 58.9 99.6376 60.9333 98.1043 65V67.5ZM161.145 43.1H163.345C168.345 43.1 173.212 45.0667 177.945 49C182.678 45.0667 187.578 43.1 192.645 43.1H194.745C201.745 43.1 207.945 46.6333 213.345 53.7C215.812 57.9 217.045 61.8 217.045 65.4V83.2C217.045 86.1333 214.978 88.4 210.845 90H208.245C205.312 90 203.045 87.9333 201.445 83.8L201.245 79.6V65.6C201.245 62.6667 199.212 60.4333 195.145 58.9H192.645C189.778 58.9 187.578 60.9333 186.045 65L185.845 69.1V83.2C185.845 86.1333 183.745 88.4 179.545 90H177.045C174.112 90 171.812 87.9333 170.145 83.8L169.945 79.6V65.6C169.945 62.6667 167.945 60.4333 163.945 58.9H161.345C158.478 58.9 156.278 60.9333 154.745 65L154.545 69.1V83.2C154.545 86.1333 152.478 88.4 148.345 90H145.745C142.812 90 140.545 87.9333 138.945 83.8V65.4C138.945 58.4 142.445 52.2 149.445 46.8C153.645 44.3333 157.545 43.1 161.145 43.1Z"/>
<path d="M235.636 23.6C238.569 23.6 240.836 25.6667 242.436 29.8V32.4C242.436 35.3333 240.369 37.6 236.236 39.2H233.636C230.702 39.2 228.436 37.1333 226.836 33V30.4C226.836 27.4667 228.902 25.2 233.036 23.6H235.636ZM235.636 43.1C238.569 43.1 240.836 45.2 242.436 49.4V83.2C242.436 86.1333 240.369 88.4 236.236 90H233.636C230.702 90 228.436 87.9333 226.836 83.8V50C226.836 47.0667 228.902 44.7667 233.036 43.1H235.636ZM292.226 58.8C295.16 58.8 297.46 60.8667 299.126 65V67.5C299.126 70.4333 297.026 72.7333 292.826 74.4H259.026C256.093 74.4 253.826 72.3 252.226 68.1V65.6C252.226 62.6667 254.293 60.4 258.426 58.8H292.226ZM333.467 23.6C340.333 23.6 346.5 27.1 351.967 34.1C354.5 38.4333 355.767 42.3667 355.767 45.9V48.2C355.767 55.4667 351.9 61.8333 344.167 67.3C351.633 74.3 355.367 78.4 355.367 79.6C355.633 80.1333 355.767 80.8667 355.767 81.8V82.6C355.767 86.0667 353.667 88.5333 349.467 90H347.567C344.833 90 341.567 87.7333 337.767 83.2L324.867 70.5H324.667V78.7C324.667 83.9667 323.767 87.0333 321.967 87.9C321.967 88.5667 320.533 89.2667 317.667 90H315.667C312.733 90 310.467 87.9333 308.867 83.8V30.4C308.867 27.4667 310.933 25.2 315.067 23.6H333.467ZM324.667 39.2V54.6H333.267C336.133 54.6 338.333 52.6 339.867 48.6V46.1C339.867 43.2333 337.867 41 333.867 39.4L329.767 39.2H324.667ZM374.307 23.6C376.774 23.6 378.907 25.3 380.707 28.7L381.307 32.2L381.107 74.2V74.4H405.507C408.441 74.4 410.741 76.4667 412.407 80.6V83.2C412.407 86.1333 410.307 88.4 406.107 90H372.307C369.374 90 367.107 87.9333 365.507 83.8V30.4C365.507 27.4667 367.574 25.2 371.707 23.6H374.307Z"/>
</mask>
<path d="M45.252 23.6H48.552C53.952 23.6 59.8853 25.6667 66.352 29.8C70.552 32.7333 72.652 35.6 72.652 38.4V39.8C72.652 41.0667 71.852 42.7 70.252 44.7C68.252 46.1 66.452 46.8 64.852 46.8C62.5186 46.8 59.952 45.4333 57.152 42.7C54.0853 40.5 50.9186 39.4 47.652 39.4H46.052C39.452 39.4 34.3186 43 30.652 50.2C29.852 52.3333 29.452 54.2667 29.452 56V57.6C29.452 64.2 33.0186 69.3333 40.152 73C42.352 73.8 44.3186 74.2 46.052 74.2H47.652C50.9186 74.2 53.952 73.1667 56.752 71.1V67H44.252C41.3853 67 39.1186 64.9 37.452 60.7V58.2C37.452 56.1333 38.752 54.1667 41.352 52.3C42.4853 51.5 44.5186 51.1 47.452 51.1H62.652C67.9186 51.1 71.1853 53 72.452 56.8L72.652 58.2V75.7C72.652 79.3 68.2186 83.3 59.352 87.7C54.8186 89.2333 51.2186 90 48.552 90H45.252C36.652 90 28.652 86.0333 21.252 78.1C16.1853 71.4333 13.652 64.8667 13.652 58.4V55.2C13.652 46.6 17.6186 38.6 25.552 31.2C32.2186 26.1333 38.7853 23.6 45.252 23.6ZM104.504 43.1H106.904C113.838 43.1 120.004 46.6333 125.404 53.7C127.938 57.9 129.204 61.8 129.204 65.4V83.2C129.204 86.1333 127.104 88.4 122.904 90H120.404C119.271 90 117.704 89.3 115.704 87.9C112.704 89.3 109.704 90 106.704 90H104.504C97.571 90 91.4043 86.5 86.0043 79.5C83.5376 75.3 82.3043 71.3667 82.3043 67.7V65.4C82.3043 58.4 85.8043 52.2 92.8043 46.8C97.0043 44.3333 100.904 43.1 104.504 43.1ZM98.1043 67.5C98.1043 70.3667 100.138 72.6 104.204 74.2H106.704C109.571 74.2 111.771 72.1667 113.304 68.1V65.6C113.304 62.6667 111.304 60.4333 107.304 58.9H104.704C101.838 58.9 99.6376 60.9333 98.1043 65V67.5ZM161.145 43.1H163.345C168.345 43.1 173.212 45.0667 177.945 49C182.678 45.0667 187.578 43.1 192.645 43.1H194.745C201.745 43.1 207.945 46.6333 213.345 53.7C215.812 57.9 217.045 61.8 217.045 65.4V83.2C217.045 86.1333 214.978 88.4 210.845 90H208.245C205.312 90 203.045 87.9333 201.445 83.8L201.245 79.6V65.6C201.245 62.6667 199.212 60.4333 195.145 58.9H192.645C189.778 58.9 187.578 60.9333 186.045 65L185.845 69.1V83.2C185.845 86.1333 183.745 88.4 179.545 90H177.045C174.112 90 171.812 87.9333 170.145 83.8L169.945 79.6V65.6C169.945 62.6667 167.945 60.4333 163.945 58.9H161.345C158.478 58.9 156.278 60.9333 154.745 65L154.545 69.1V83.2C154.545 86.1333 152.478 88.4 148.345 90H145.745C142.812 90 140.545 87.9333 138.945 83.8V65.4C138.945 58.4 142.445 52.2 149.445 46.8C153.645 44.3333 157.545 43.1 161.145 43.1Z" fill="#FF00E5"/>
<path d="M235.636 23.6C238.569 23.6 240.836 25.6667 242.436 29.8V32.4C242.436 35.3333 240.369 37.6 236.236 39.2H233.636C230.702 39.2 228.436 37.1333 226.836 33V30.4C226.836 27.4667 228.902 25.2 233.036 23.6H235.636ZM235.636 43.1C238.569 43.1 240.836 45.2 242.436 49.4V83.2C242.436 86.1333 240.369 88.4 236.236 90H233.636C230.702 90 228.436 87.9333 226.836 83.8V50C226.836 47.0667 228.902 44.7667 233.036 43.1H235.636ZM292.226 58.8C295.16 58.8 297.46 60.8667 299.126 65V67.5C299.126 70.4333 297.026 72.7333 292.826 74.4H259.026C256.093 74.4 253.826 72.3 252.226 68.1V65.6C252.226 62.6667 254.293 60.4 258.426 58.8H292.226ZM333.467 23.6C340.333 23.6 346.5 27.1 351.967 34.1C354.5 38.4333 355.767 42.3667 355.767 45.9V48.2C355.767 55.4667 351.9 61.8333 344.167 67.3C351.633 74.3 355.367 78.4 355.367 79.6C355.633 80.1333 355.767 80.8667 355.767 81.8V82.6C355.767 86.0667 353.667 88.5333 349.467 90H347.567C344.833 90 341.567 87.7333 337.767 83.2L324.867 70.5H324.667V78.7C324.667 83.9667 323.767 87.0333 321.967 87.9C321.967 88.5667 320.533 89.2667 317.667 90H315.667C312.733 90 310.467 87.9333 308.867 83.8V30.4C308.867 27.4667 310.933 25.2 315.067 23.6H333.467ZM324.667 39.2V54.6H333.267C336.133 54.6 338.333 52.6 339.867 48.6V46.1C339.867 43.2333 337.867 41 333.867 39.4L329.767 39.2H324.667ZM374.307 23.6C376.774 23.6 378.907 25.3 380.707 28.7L381.307 32.2L381.107 74.2V74.4H405.507C408.441 74.4 410.741 76.4667 412.407 80.6V83.2C412.407 86.1333 410.307 88.4 406.107 90H372.307C369.374 90 367.107 87.9333 365.507 83.8V30.4C365.507 27.4667 367.574 25.2 371.707 23.6H374.307Z" fill="#5F0099"/>
<path d="M66.352 29.8L69.2149 25.7008L69.131 25.6422L69.0448 25.5871L66.352 29.8ZM70.252 44.7L73.1193 48.7962L73.7076 48.3843L74.1563 47.8235L70.252 44.7ZM57.152 42.7L60.6446 39.1221L60.3739 38.8578L60.0665 38.6373L57.152 42.7ZM30.652 50.2L26.1964 47.931L26.069 48.1813L25.9703 48.4444L30.652 50.2ZM40.152 73L37.8662 77.4469L38.1467 77.5912L38.4432 77.699L40.152 73ZM56.752 71.1L59.7212 75.1229L61.752 73.624V71.1H56.752ZM56.752 67H61.752V62H56.752V67ZM37.452 60.7H32.452V61.6558L32.8045 62.5442L37.452 60.7ZM41.352 52.3L38.4685 48.2152L38.4522 48.2267L38.4359 48.2384L41.352 52.3ZM72.452 56.8L77.4017 56.0929L77.3379 55.6466L77.1954 55.2189L72.452 56.8ZM72.652 58.2H77.652V57.8447L77.6017 57.4929L72.652 58.2ZM59.352 87.7L60.954 92.4364L61.2729 92.3285L61.5745 92.1789L59.352 87.7ZM21.252 78.1L17.2711 81.1254L17.4237 81.3261L17.5957 81.5105L21.252 78.1ZM25.552 31.2L22.5265 27.2192L22.3258 27.3717L22.1415 27.5437L25.552 31.2ZM45.252 28.6H48.552V18.6H45.252V28.6ZM48.552 28.6C52.6756 28.6 57.6735 30.1871 63.6592 34.0129L69.0448 25.5871C62.0971 21.1463 55.2284 18.6 48.552 18.6V28.6ZM63.489 33.8992C67.4169 36.6425 67.652 38.2039 67.652 38.4H77.652C77.652 32.9961 73.687 28.8242 69.2149 25.7008L63.489 33.8992ZM67.652 38.4V39.8H77.652V38.4H67.652ZM67.652 39.8C67.652 39.4128 67.7622 39.3663 67.5616 39.7757C67.373 40.1609 67.0039 40.7562 66.3476 41.5765L74.1563 47.8235C75.858 45.6963 77.652 42.8941 77.652 39.8H67.652ZM67.3846 40.6038C65.8111 41.7053 65.016 41.8 64.852 41.8V51.8C67.8879 51.8 70.6928 50.4947 73.1193 48.7962L67.3846 40.6038ZM64.852 41.8C64.4682 41.8 63.1048 41.5237 60.6446 39.1221L53.6593 46.2779C56.7991 49.343 60.5691 51.8 64.852 51.8V41.8ZM60.0665 38.6373C56.2868 35.9258 52.1207 34.4 47.652 34.4V44.4C49.7166 44.4 51.8837 45.0742 54.2374 46.7627L60.0665 38.6373ZM47.652 34.4H46.052V44.4H47.652V34.4ZM46.052 34.4C37.1134 34.4 30.4867 39.5066 26.1964 47.931L35.1075 52.469C38.1506 46.4934 41.7905 44.4 46.052 44.4V34.4ZM25.9703 48.4444C25.0224 50.9722 24.452 53.5116 24.452 56H34.452C34.452 55.0218 34.6815 53.6944 35.3336 51.9556L25.9703 48.4444ZM24.452 56V57.6H34.452V56H24.452ZM24.452 57.6C24.452 66.5137 29.4975 73.1453 37.8662 77.4469L42.4378 68.5531C36.5398 65.5214 34.452 61.8863 34.452 57.6H24.452ZM38.4432 77.699C41.0114 78.6328 43.5713 79.2 46.052 79.2V69.2C45.0659 69.2 43.6925 68.9672 41.8607 68.301L38.4432 77.699ZM46.052 79.2H47.652V69.2H46.052V79.2ZM47.652 79.2C52.0593 79.2 56.121 77.7801 59.7212 75.1229L53.7827 67.0771C51.7829 68.5532 49.778 69.2 47.652 69.2V79.2ZM61.752 71.1V67H51.752V71.1H61.752ZM56.752 62H44.252V72H56.752V62ZM44.252 62C44.182 62 44.0877 62.0236 43.8001 61.7572C43.4072 61.3932 42.7748 60.5578 42.0994 58.8558L32.8045 62.5442C34.7312 67.3994 38.2603 72 44.252 72V62ZM42.452 60.7V58.2H32.452V60.7H42.452ZM42.452 58.2C42.452 58.2801 42.4104 58.2161 42.598 57.9322C42.8161 57.6023 43.2969 57.0588 44.268 56.3616L38.4359 48.2384C35.2677 50.513 32.452 53.7884 32.452 58.2H42.452ZM44.2354 56.3848C44.0157 56.5399 44.0552 56.4313 44.6921 56.306C45.2902 56.1883 46.1874 56.1 47.452 56.1V46.1C44.4161 46.1 40.9753 46.4457 38.4685 48.2152L44.2354 56.3848ZM47.452 56.1H62.652V46.1H47.452V56.1ZM62.652 56.1C64.7332 56.1 65.9108 56.4823 66.5381 56.8471C67.0527 57.1464 67.4349 57.5603 67.7085 58.3811L77.1954 55.2189C76.2023 52.2397 74.3179 49.8036 71.5658 48.2029C68.9264 46.6677 65.8373 46.1 62.652 46.1V56.1ZM67.5022 57.5071L67.7022 58.9071L77.6017 57.4929L77.4017 56.0929L67.5022 57.5071ZM67.652 58.2V75.7H77.652V58.2H67.652ZM67.652 75.7C67.652 75.3846 67.8097 76.0346 65.9775 77.6877C64.2487 79.2475 61.3843 81.1097 57.1294 83.2211L61.5745 92.1789C66.1862 89.8903 69.9719 87.5525 72.6764 85.1123C75.2775 82.7654 77.652 79.6154 77.652 75.7H67.652ZM57.7499 82.9636C53.3911 84.4379 50.4029 85 48.552 85V95C52.0343 95 56.2462 94.0288 60.954 92.4364L57.7499 82.9636ZM48.552 85H45.252V95H48.552V85ZM45.252 85C38.3823 85 31.6259 81.8913 24.9083 74.6895L17.5957 81.5105C25.678 90.1754 34.9217 95 45.252 95V85ZM25.2328 75.0746C20.6314 69.0202 18.652 63.4892 18.652 58.4H8.65195C8.65195 66.2441 11.7392 73.8465 17.2711 81.1254L25.2328 75.0746ZM18.652 58.4V55.2H8.65195V58.4H18.652ZM18.652 55.2C18.652 48.3303 21.7607 41.5739 28.9625 34.8563L22.1415 27.5437C13.4766 35.6261 8.65195 44.8697 8.65195 55.2H18.652ZM28.5774 35.1808C34.6318 30.5794 40.1627 28.6 45.252 28.6V18.6C37.4079 18.6 29.8054 21.6872 22.5265 27.2192L28.5774 35.1808ZM125.404 53.7L129.686 51.1175L129.544 50.8824L129.377 50.6641L125.404 53.7ZM122.904 90V95H123.824L124.684 94.6724L122.904 90ZM115.704 87.9L118.572 83.8038L116.206 82.1481L113.59 83.3691L115.704 87.9ZM86.0043 79.5L81.6929 82.0321L81.8527 82.3042L82.0454 82.554L86.0043 79.5ZM92.8043 46.8L90.2722 42.4886L90.0001 42.6484L89.7503 42.8411L92.8043 46.8ZM104.204 74.2L102.374 78.8528L103.256 79.2H104.204V74.2ZM113.304 68.1L117.983 69.864L118.304 69.0113V68.1H113.304ZM107.304 58.9L109.094 54.2313L108.23 53.9H107.304V58.9ZM98.1043 65L93.4258 63.236L93.1043 64.0887V65H98.1043ZM104.504 48.1H106.904V38.1H104.504V48.1ZM106.904 48.1C111.853 48.1 116.684 50.5236 121.431 56.7359L129.377 50.6641C123.324 42.7431 115.822 38.1 106.904 38.1V48.1ZM121.123 56.2825C123.35 59.9752 124.204 62.9827 124.204 65.4H134.204C134.204 60.6173 132.525 55.8248 129.686 51.1175L121.123 56.2825ZM124.204 65.4V83.2H134.204V65.4H124.204ZM124.204 83.2C124.204 83.3345 124.205 83.4387 123.961 83.7019C123.617 84.0736 122.808 84.6862 121.124 85.3276L124.684 94.6724C129.625 92.7902 134.204 89.2473 134.204 83.2H124.204ZM122.904 85H120.404V95H122.904V85ZM120.404 85C120.807 85 120.859 85.1067 120.419 84.91C120.019 84.7312 119.411 84.3912 118.572 83.8038L112.837 91.9962C114.902 93.4414 117.59 95 120.404 95V85ZM113.59 83.3691C111.183 84.4924 108.901 85 106.704 85V95C110.508 95 114.226 94.1076 117.819 92.4309L113.59 83.3691ZM106.704 85H104.504V95H106.704V85ZM104.504 85C99.535 85 94.702 82.5889 89.9632 76.446L82.0454 82.554C88.1066 90.4111 95.6069 95 104.504 95V85ZM90.3157 76.9679C88.1564 73.2912 87.3043 70.2303 87.3043 67.7H77.3043C77.3043 72.5031 78.9189 77.3088 81.6929 82.0321L90.3157 76.9679ZM87.3043 67.7V65.4H77.3043V67.7H87.3043ZM87.3043 65.4C87.3043 60.349 89.7306 55.486 95.8583 50.7589L89.7503 42.8411C81.878 48.914 77.3043 56.451 77.3043 65.4H87.3043ZM95.3364 51.1114C99.0298 48.9423 102.055 48.1 104.504 48.1V38.1C99.7535 38.1 94.9788 39.7243 90.2722 42.4886L95.3364 51.1114ZM93.1043 67.5C93.1043 73.4349 97.5553 76.9571 102.374 78.8528L106.035 69.5472C104.419 68.9113 103.65 68.314 103.327 67.9589C103.099 67.7088 103.104 67.617 103.104 67.5H93.1043ZM104.204 79.2H106.704V69.2H104.204V79.2ZM106.704 79.2C112.674 79.2 116.158 74.7037 117.983 69.864L108.626 66.336C108.019 67.9461 107.441 68.6973 107.111 69.0031C106.889 69.2082 106.819 69.2 106.704 69.2V79.2ZM118.304 68.1V65.6H108.304V68.1H118.304ZM118.304 65.6C118.304 59.6595 113.974 56.1018 109.094 54.2313L105.515 63.5687C107.07 64.165 107.787 64.7344 108.08 65.0606C108.278 65.2825 108.304 65.3938 108.304 65.6H118.304ZM107.304 53.9H104.704V63.9H107.304V53.9ZM104.704 53.9C98.7343 53.9 95.2506 58.3963 93.4258 63.236L102.783 66.764C103.39 65.1539 103.967 64.4027 104.298 64.0969C104.52 63.8918 104.59 63.9 104.704 63.9V53.9ZM93.1043 65V67.5H103.104V65H93.1043ZM177.945 49L174.749 52.8455L177.945 55.501L181.141 52.8455L177.945 49ZM213.345 53.7L217.656 51.1679L217.502 50.9057L217.318 50.6641L213.345 53.7ZM210.845 90V95H211.779L212.65 94.6628L210.845 90ZM201.445 83.8L196.451 84.0378L196.489 84.8483L196.782 85.605L201.445 83.8ZM201.245 79.6H196.245V79.719L196.251 79.8378L201.245 79.6ZM195.145 58.9L196.909 54.2215L196.056 53.9H195.145V58.9ZM186.045 65L181.366 63.236L181.089 63.9714L181.051 64.7564L186.045 65ZM185.845 69.1L180.851 68.8564L180.845 68.9781V69.1H185.845ZM179.545 90V95H180.465L181.325 94.6724L179.545 90ZM170.145 83.8L165.151 84.0378L165.191 84.8841L165.508 85.6698L170.145 83.8ZM169.945 79.6H164.945V79.719L164.951 79.8378L169.945 79.6ZM163.945 58.9L165.735 54.2313L164.87 53.9H163.945V58.9ZM154.745 65L150.066 63.236L149.789 63.9714L149.751 64.7564L154.745 65ZM154.545 69.1L149.551 68.8564L149.545 68.9781V69.1H154.545ZM148.345 90V95H149.279L150.15 94.6628L148.345 90ZM138.945 83.8H133.945V84.734L134.282 85.605L138.945 83.8ZM149.445 46.8L146.913 42.4886L146.641 42.6484L146.391 42.8411L149.445 46.8ZM161.145 48.1H163.345V38.1H161.145V48.1ZM163.345 48.1C166.927 48.1 170.7 49.4802 174.749 52.8455L181.141 45.1545C175.724 40.6531 169.763 38.1 163.345 38.1V48.1ZM181.141 52.8455C185.176 49.492 188.982 48.1 192.645 48.1V38.1C186.175 38.1 180.18 40.6413 174.749 45.1545L181.141 52.8455ZM192.645 48.1H194.745V38.1H192.645V48.1ZM194.745 48.1C199.776 48.1 204.637 50.5389 209.372 56.7359L217.318 50.6641C211.253 42.7277 203.714 38.1 194.745 38.1V48.1ZM209.033 56.2321C211.203 59.9255 212.045 62.9508 212.045 65.4H222.045C222.045 60.6492 220.421 55.8745 217.656 51.1679L209.033 56.2321ZM212.045 65.4V83.2H222.045V65.4H212.045ZM212.045 83.2C212.045 83.3591 212.036 83.4727 211.8 83.7312C211.468 84.096 210.683 84.7011 209.04 85.3372L212.65 94.6628C217.563 92.7611 222.045 89.2013 222.045 83.2H212.045ZM210.845 85H208.245V95H210.845V85ZM208.245 85C208.086 85 207.972 84.991 207.714 84.7552C207.349 84.4227 206.744 83.6382 206.108 81.995L196.782 85.605C198.684 90.5178 202.244 95 208.245 95V85ZM206.439 83.5622L206.239 79.3622L196.251 79.8378L196.451 84.0378L206.439 83.5622ZM206.245 79.6V65.6H196.245V79.6H206.245ZM206.245 65.6C206.245 59.6114 201.816 56.0718 196.909 54.2215L193.381 63.5785C194.977 64.1804 195.719 64.7578 196.023 65.0911C196.229 65.3172 196.245 65.4186 196.245 65.6H206.245ZM195.145 53.9H192.645V63.9H195.145V53.9ZM192.645 53.9C186.675 53.9 183.191 58.3963 181.366 63.236L190.723 66.764C191.331 65.1539 191.908 64.4027 192.239 64.0969C192.461 63.8918 192.531 63.9 192.645 63.9V53.9ZM181.051 64.7564L180.851 68.8564L190.839 69.3436L191.039 65.2436L181.051 64.7564ZM180.845 69.1V83.2H190.845V69.1H180.845ZM180.845 83.2C180.845 83.3345 180.846 83.4387 180.602 83.7019C180.258 84.0736 179.449 84.6862 177.765 85.3276L181.325 94.6724C186.266 92.7902 190.845 89.2473 190.845 83.2H180.845ZM179.545 85H177.045V95H179.545V85ZM177.045 85C176.883 85 176.748 84.9884 176.462 84.7309C176.073 84.3813 175.447 83.5794 174.782 81.9302L165.508 85.6698C167.48 90.5611 171.077 95 177.045 95V85ZM175.139 83.5622L174.939 79.3622L164.951 79.8378L165.151 84.0378L175.139 83.5622ZM174.945 79.6V65.6H164.945V79.6H174.945ZM174.945 65.6C174.945 59.6595 170.614 56.1018 165.735 54.2313L162.155 63.5687C163.711 64.165 164.428 64.7344 164.72 65.0606C164.919 65.2825 164.945 65.3938 164.945 65.6H174.945ZM163.945 53.9H161.345V63.9H163.945V53.9ZM161.345 53.9C155.375 53.9 151.891 58.3963 150.066 63.236L159.423 66.764C160.031 65.1539 160.608 64.4027 160.939 64.0969C161.161 63.8918 161.231 63.9 161.345 63.9V53.9ZM149.751 64.7564L149.551 68.8564L159.539 69.3436L159.739 65.2436L149.751 64.7564ZM149.545 69.1V83.2H159.545V69.1H149.545ZM149.545 83.2C149.545 83.3591 149.536 83.4727 149.3 83.7312C148.968 84.096 148.183 84.7011 146.54 85.3372L150.15 94.6628C155.063 92.7611 159.545 89.2013 159.545 83.2H149.545ZM148.345 85H145.745V95H148.345V85ZM145.745 85C145.586 85 145.472 84.991 145.214 84.7552C144.849 84.4227 144.244 83.6382 143.608 81.995L134.282 85.605C136.184 90.5178 139.744 95 145.745 95V85ZM143.945 83.8V65.4H133.945V83.8H143.945ZM143.945 65.4C143.945 60.349 146.371 55.486 152.499 50.7589L146.391 42.8411C138.519 48.914 133.945 56.451 133.945 65.4H143.945ZM151.977 51.1114C155.67 48.9423 158.696 48.1 161.145 48.1V38.1C156.394 38.1 151.619 39.7243 146.913 42.4886L151.977 51.1114ZM242.436 29.8H247.436V28.866L247.098 27.995L242.436 29.8ZM236.236 39.2V44.2H237.17L238.041 43.8628L236.236 39.2ZM226.836 33H221.836V33.934L222.173 34.805L226.836 33ZM233.036 23.6V18.6H232.102L231.231 18.9372L233.036 23.6ZM242.436 49.4H247.436V48.4799L247.108 47.62L242.436 49.4ZM236.236 90V95H237.17L238.041 94.6628L236.236 90ZM226.836 83.8H221.836V84.734L222.173 85.605L226.836 83.8ZM233.036 43.1V38.1H232.065L231.166 38.4628L233.036 43.1ZM235.636 28.6C235.795 28.6 235.908 28.609 236.167 28.8448C236.532 29.1773 237.137 29.9618 237.773 31.605L247.098 27.995C245.197 23.0822 241.637 18.6 235.636 18.6V28.6ZM237.436 29.8V32.4H247.436V29.8H237.436ZM237.436 32.4C237.436 32.5591 237.427 32.6727 237.191 32.9312C236.858 33.296 236.074 33.9011 234.431 34.5372L238.041 43.8628C242.953 41.9611 247.436 38.4013 247.436 32.4H237.436ZM236.236 34.2H233.636V44.2H236.236V34.2ZM233.636 34.2C233.476 34.2 233.363 34.191 233.104 33.9552C232.74 33.6227 232.134 32.8382 231.498 31.195L222.173 34.805C224.074 39.7177 227.634 44.2 233.636 44.2V34.2ZM231.836 33V30.4H221.836V33H231.836ZM231.836 30.4C231.836 30.2409 231.845 30.1273 232.08 29.8688C232.413 29.504 233.197 28.8989 234.841 28.2628L231.231 18.9372C226.318 20.8389 221.836 24.3987 221.836 30.4H231.836ZM233.036 28.6H235.636V18.6H233.036V28.6ZM235.636 48.1C235.77 48.1 235.874 48.099 236.137 48.3428C236.509 48.6872 237.122 49.4964 237.763 51.18L247.108 47.62C245.226 42.6792 241.683 38.1 235.636 38.1V48.1ZM237.436 49.4V83.2H247.436V49.4H237.436ZM237.436 83.2C237.436 83.3591 237.427 83.4727 237.191 83.7312C236.858 84.096 236.074 84.7011 234.431 85.3372L238.041 94.6628C242.953 92.7611 247.436 89.2013 247.436 83.2H237.436ZM236.236 85H233.636V95H236.236V85ZM233.636 85C233.476 85 233.363 84.991 233.104 84.7552C232.74 84.4227 232.134 83.6382 231.498 81.995L222.173 85.605C224.074 90.5178 227.634 95 233.636 95V85ZM231.836 83.8V50H221.836V83.8H231.836ZM231.836 50C231.836 49.8383 231.847 49.7034 232.105 49.4168C232.454 49.0278 233.256 48.4022 234.905 47.7372L231.166 38.4628C226.274 40.4351 221.836 44.0324 221.836 50H231.836ZM233.036 48.1H235.636V38.1H233.036V48.1ZM299.126 65H304.126V64.0299L303.763 63.1302L299.126 65ZM292.826 74.4V79.4H293.782L294.67 79.0475L292.826 74.4ZM252.226 68.1H247.226V69.0201L247.554 69.88L252.226 68.1ZM258.426 58.8V53.8H257.492L256.621 54.1372L258.426 58.8ZM292.226 63.8C292.388 63.8 292.523 63.8116 292.809 64.0691C293.198 64.4187 293.824 65.2206 294.489 66.8698L303.763 63.1302C301.791 58.2389 298.194 53.8 292.226 53.8V63.8ZM294.126 65V67.5H304.126V65H294.126ZM294.126 67.5C294.126 67.6373 294.124 67.7627 293.859 68.0537C293.498 68.4493 292.671 69.0822 290.982 69.7525L294.67 79.0475C299.591 77.0947 304.126 73.513 304.126 67.5H294.126ZM292.826 69.4H259.026V79.4H292.826V69.4ZM259.026 69.4C258.892 69.4 258.787 69.401 258.524 69.1572C258.153 68.8128 257.54 68.0036 256.899 66.32L247.554 69.88C249.436 74.8208 252.979 79.4 259.026 79.4V69.4ZM257.226 68.1V65.6H247.226V68.1H257.226ZM257.226 65.6C257.226 65.4409 257.235 65.3273 257.471 65.0688C257.804 64.704 258.588 64.0989 260.231 63.4628L256.621 54.1372C251.708 56.0389 247.226 59.5987 247.226 65.6H257.226ZM258.426 63.8H292.226V53.8H258.426V63.8ZM351.967 34.1L356.283 31.5765L356.114 31.2869L355.907 31.0225L351.967 34.1ZM344.167 67.3L341.281 63.2171L336.275 66.7554L340.747 70.9477L344.167 67.3ZM355.367 79.6H350.367V80.7803L350.895 81.8361L355.367 79.6ZM349.467 90V95H350.315L351.115 94.7205L349.467 90ZM337.767 83.2L341.599 79.988L341.445 79.8047L341.275 79.637L337.767 83.2ZM324.867 70.5L328.375 66.937L326.915 65.5H324.867V70.5ZM324.667 70.5V65.5H319.667V70.5H324.667ZM321.967 87.9L319.798 83.395L316.967 84.758V87.9H321.967ZM317.667 90V95H318.296L318.906 94.844L317.667 90ZM308.867 83.8H303.867V84.734L304.204 85.605L308.867 83.8ZM315.067 23.6V18.6H314.133L313.262 18.9372L315.067 23.6ZM324.667 39.2V34.2H319.667V39.2H324.667ZM324.667 54.6H319.667V59.6H324.667V54.6ZM339.867 48.6L344.536 50.3897L344.867 49.5255V48.6H339.867ZM333.867 39.4L335.724 34.7576L334.947 34.4467L334.11 34.4059L333.867 39.4ZM329.767 39.2L330.01 34.2059L329.889 34.2H329.767V39.2ZM333.467 28.6C338.361 28.6 343.204 31.0033 348.026 37.1775L355.907 31.0225C349.796 23.1967 342.306 18.6 333.467 18.6V28.6ZM347.65 36.6235C349.914 40.4958 350.767 43.5501 350.767 45.9H360.767C360.767 41.1832 359.086 36.3708 356.283 31.5765L347.65 36.6235ZM350.767 45.9V48.2H360.767V45.9H350.767ZM350.767 48.2C350.767 53.3663 348.133 58.3734 341.281 63.2171L347.053 71.3829C355.668 65.2932 360.767 57.5671 360.767 48.2H350.767ZM340.747 70.9477C344.45 74.4192 347.137 77.0881 348.87 78.9914C349.746 79.9539 350.287 80.6212 350.579 81.0356C350.727 81.2461 350.738 81.2882 350.693 81.1954C350.668 81.1438 350.599 80.997 350.532 80.7719C350.469 80.5597 350.367 80.148 350.367 79.6H360.367C360.367 78.3154 359.918 77.3007 359.691 76.8327C359.413 76.2587 359.073 75.7289 358.754 75.2769C358.113 74.3663 357.254 73.3461 356.264 72.2586C354.263 70.0619 351.35 67.1808 347.587 63.6523L340.747 70.9477ZM350.895 81.8361C350.831 81.7093 350.794 81.6078 350.774 81.5432C350.764 81.5104 350.757 81.4854 350.753 81.4692C350.751 81.461 350.75 81.4548 350.749 81.4507C350.748 81.4466 350.747 81.4445 350.747 81.4444C350.747 81.4444 350.748 81.4462 350.748 81.4501C350.749 81.454 350.75 81.4598 350.751 81.4675C350.753 81.4831 350.755 81.5059 350.758 81.5362C350.763 81.5977 350.767 81.6847 350.767 81.8H360.767C360.767 80.4854 360.594 78.8748 359.839 77.3639L350.895 81.8361ZM350.767 81.8V82.6H360.767V81.8H350.767ZM350.767 82.6C350.767 83.2356 350.608 83.5461 350.385 83.8088C350.086 84.1597 349.38 84.7342 347.818 85.2795L351.115 94.7205C353.754 93.7991 356.198 92.407 357.999 90.2912C359.875 88.0872 360.767 85.4311 360.767 82.6H350.767ZM349.467 85H347.567V95H349.467V85ZM347.567 85C347.586 85 347.076 84.9964 345.917 84.1921C344.78 83.4033 343.338 82.0624 341.599 79.988L333.935 86.412C335.996 88.8709 338.087 90.9301 340.216 92.4079C342.324 93.8703 344.814 95 347.567 95V85ZM341.275 79.637L328.375 66.937L321.359 74.063L334.259 86.763L341.275 79.637ZM324.867 65.5H324.667V75.5H324.867V65.5ZM319.667 70.5V78.7H329.667V70.5H319.667ZM319.667 78.7C319.667 81.1224 319.451 82.6653 319.194 83.542C318.909 84.5139 318.829 83.8613 319.798 83.395L324.136 92.405C326.904 91.0721 328.175 88.4527 328.789 86.358C329.432 84.1681 329.667 81.5443 329.667 78.7H319.667ZM316.967 87.9C316.967 86.1538 317.917 85.1026 318.248 84.7876C318.596 84.4554 318.84 84.3626 318.698 84.4322C318.443 84.5564 317.76 84.8151 316.428 85.156L318.906 94.844C320.44 94.4515 321.907 93.9936 323.086 93.4178C323.66 93.1374 324.442 92.6987 325.148 92.0249C325.837 91.3682 326.967 89.9795 326.967 87.9H316.967ZM317.667 85H315.667V95H317.667V85ZM315.667 85C315.508 85 315.394 84.991 315.136 84.7552C314.771 84.4227 314.166 83.6382 313.53 81.995L304.204 85.605C306.106 90.5178 309.665 95 315.667 95V85ZM313.867 83.8V30.4H303.867V83.8H313.867ZM313.867 30.4C313.867 30.2409 313.876 30.1273 314.112 29.8688C314.444 29.504 315.229 28.8989 316.872 28.2628L313.262 18.9372C308.349 20.8389 303.867 24.3987 303.867 30.4H313.867ZM315.067 28.6H333.467V18.6H315.067V28.6ZM319.667 39.2V54.6H329.667V39.2H319.667ZM324.667 59.6H333.267V49.6H324.667V59.6ZM333.267 59.6C339.189 59.6 342.691 55.2026 344.536 50.3897L335.198 46.8103C334.596 48.3797 334.027 49.1061 333.703 49.4003C333.486 49.5978 333.406 49.6 333.267 49.6V59.6ZM344.867 48.6V46.1H334.867V48.6H344.867ZM344.867 46.1C344.867 40.2122 340.514 36.6736 335.724 34.7576L332.01 44.0424C333.585 44.6726 334.33 45.2623 334.642 45.6106C334.862 45.8563 334.867 45.958 334.867 46.1H344.867ZM334.11 34.4059L330.01 34.2059L329.523 44.1941L333.623 44.3941L334.11 34.4059ZM329.767 34.2H324.667V44.2H329.767V34.2ZM380.707 28.7L385.636 27.8552L385.5 27.0672L385.126 26.3606L380.707 28.7ZM381.307 32.2L386.307 32.2238L386.309 31.7864L386.236 31.3552L381.307 32.2ZM381.107 74.2L376.107 74.1762L376.107 74.1881V74.2H381.107ZM381.107 74.4H376.107V79.4H381.107V74.4ZM412.407 80.6H417.407V79.6299L417.045 78.7302L412.407 80.6ZM406.107 90V95H407.028L407.887 94.6724L406.107 90ZM365.507 83.8H360.507V84.734L360.845 85.605L365.507 83.8ZM371.707 23.6V18.6H370.773L369.902 18.9372L371.707 23.6ZM374.307 28.6C374.336 28.6 374.345 28.6025 374.362 28.6087C374.384 28.6171 374.478 28.6552 374.641 28.7853C374.998 29.0691 375.588 29.7154 376.288 31.0394L385.126 26.3606C382.987 22.319 379.531 18.6 374.307 18.6V28.6ZM375.779 29.5448L376.379 33.0448L386.236 31.3552L385.636 27.8552L375.779 29.5448ZM376.307 32.1762L376.107 74.1762L386.107 74.2238L386.307 32.2238L376.307 32.1762ZM376.107 74.2V74.4H386.107V74.2H376.107ZM381.107 79.4H405.507V69.4H381.107V79.4ZM405.507 79.4C405.669 79.4 405.804 79.4116 406.091 79.6691C406.48 80.0187 407.105 80.8206 407.77 82.4698L417.045 78.7302C415.072 73.8389 411.475 69.4 405.507 69.4V79.4ZM407.407 80.6V83.2H417.407V80.6H407.407ZM407.407 83.2C407.407 83.3345 407.408 83.4387 407.165 83.7019C406.82 84.0736 406.011 84.6862 404.327 85.3276L407.887 94.6724C412.828 92.7902 417.407 89.2473 417.407 83.2H407.407ZM406.107 85H372.307V95H406.107V85ZM372.307 85C372.148 85 372.035 84.991 371.776 84.7552C371.411 84.4227 370.806 83.6382 370.17 81.995L360.845 85.605C362.746 90.5178 366.306 95 372.307 95V85ZM370.507 83.8V30.4H360.507V83.8H370.507ZM370.507 30.4C370.507 30.2409 370.516 30.1273 370.752 29.8688C371.085 29.504 371.869 28.8989 373.512 28.2628L369.902 18.9372C364.99 20.8389 360.507 24.3987 360.507 30.4H370.507ZM371.707 28.6H374.307V18.6H371.707V28.6Z" fill="white" mask="url(#path-1-outside-1_50_1948)"/>
</svg>
